<svg width="89" height="43" viewBox="0 0 89 43" fill="none" xmlns="http://www.w3.org/2000/svg">
<rect width="89" height="43" rx="21.5" fill="white" fill-opacity="0.05"/>
<rect x="0.5" y="0.5" width="88" height="42" rx="21" stroke="#E3E3E3" stroke-opacity="0.2"/>
<path d="M25.1932 20C25.0838 19.6652 24.9396 19.3653 24.7607 19.1001C24.585 18.8317 24.3745 18.603 24.1293 18.4141C23.8873 18.2251 23.6122 18.081 23.304 17.9815C22.9957 17.8821 22.6577 17.8324 22.2898 17.8324C21.6866 17.8324 21.138 17.9882 20.6442 18.2997C20.1503 18.6113 19.7576 19.0703 19.4659 19.6768C19.1742 20.2834 19.0284 21.0275 19.0284 21.9091C19.0284 22.7907 19.1759 23.5348 19.4709 24.1413C19.7659 24.7479 20.1652 25.2069 20.669 25.5185C21.1728 25.83 21.7396 25.9858 22.3693 25.9858C22.9527 25.9858 23.4664 25.8615 23.9105 25.6129C24.358 25.361 24.706 25.0064 24.9545 24.549C25.2064 24.0883 25.3324 23.5464 25.3324 22.9233L25.7102 23.0028H22.6477V21.9091H26.5256V23.0028C26.5256 23.8414 26.3466 24.5705 25.9886 25.1903C25.634 25.8101 25.1435 26.2907 24.517 26.6321C23.8939 26.9702 23.178 27.1392 22.3693 27.1392C21.4678 27.1392 20.6757 26.9271 19.9929 26.5028C19.3134 26.0786 18.7831 25.4754 18.402 24.6932C18.0241 23.911 17.8352 22.983 17.8352 21.9091C17.8352 21.1037 17.9429 20.3795 18.1584 19.7365C18.3771 19.0902 18.6854 18.54 19.0831 18.0859C19.4808 17.6319 19.9515 17.2839 20.495 17.0419C21.0386 16.8 21.6368 16.679 22.2898 16.679C22.8267 16.679 23.3272 16.7602 23.7912 16.9226C24.2585 17.0817 24.6745 17.3087 25.0391 17.6037C25.407 17.8954 25.7135 18.245 25.9588 18.6527C26.2041 19.0571 26.3731 19.5062 26.4659 20H25.1932ZM31.5804 27.1591C30.891 27.1591 30.2862 26.995 29.7658 26.6669C29.2488 26.3388 28.8444 25.8797 28.5527 25.2898C28.2644 24.6998 28.1202 24.0104 28.1202 23.2216C28.1202 22.4261 28.2644 21.7318 28.5527 21.1385C28.8444 20.5452 29.2488 20.0845 29.7658 19.7564C30.2862 19.4283 30.891 19.2642 31.5804 19.2642C32.2698 19.2642 32.873 19.4283 33.3901 19.7564C33.9105 20.0845 34.3148 20.5452 34.6032 21.1385C34.8948 21.7318 35.0407 22.4261 35.0407 23.2216C35.0407 24.0104 34.8948 24.6998 34.6032 25.2898C34.3148 25.8797 33.9105 26.3388 33.3901 26.6669C32.873 26.995 32.2698 27.1591 31.5804 27.1591ZM31.5804 26.1051C32.1041 26.1051 32.535 25.9709 32.873 25.7024C33.2111 25.4339 33.4614 25.081 33.6238 24.6435C33.7862 24.206 33.8674 23.732 33.8674 23.2216C33.8674 22.7112 33.7862 22.2356 33.6238 21.7947C33.4614 21.3539 33.2111 20.9976 32.873 20.7259C32.535 20.4541 32.1041 20.3182 31.5804 20.3182C31.0568 20.3182 30.6259 20.4541 30.2878 20.7259C29.9498 20.9976 29.6995 21.3539 29.5371 21.7947C29.3747 22.2356 29.2935 22.7112 29.2935 23.2216C29.2935 23.732 29.3747 24.206 29.5371 24.6435C29.6995 25.081 29.9498 25.4339 30.2878 25.7024C30.6259 25.9709 31.0568 26.1051 31.5804 26.1051ZM40.9283 27V16.8182H42.1016V20.5767H42.201C42.2872 20.4441 42.4065 20.2751 42.5589 20.0696C42.7147 19.8608 42.9368 19.6752 43.2251 19.5128C43.5168 19.3471 43.9112 19.2642 44.4084 19.2642C45.0514 19.2642 45.6181 19.425 46.1087 19.7464C46.5992 20.0679 46.982 20.5237 47.2571 21.1136C47.5322 21.7036 47.6697 22.3996 47.6697 23.2017C47.6697 24.0104 47.5322 24.7114 47.2571 25.3047C46.982 25.8946 46.6009 26.352 46.1136 26.6768C45.6264 26.9983 45.0646 27.1591 44.4283 27.1591C43.9377 27.1591 43.545 27.0779 43.25 26.9155C42.955 26.7498 42.728 26.5625 42.5689 26.3537C42.4098 26.1416 42.2872 25.9659 42.201 25.8267H42.0618V27H40.9283ZM42.0817 23.1818C42.0817 23.7585 42.1662 24.2673 42.3352 24.7081C42.5043 25.1456 42.7512 25.4886 43.076 25.7372C43.4008 25.9825 43.7985 26.1051 44.2692 26.1051C44.7597 26.1051 45.169 25.9759 45.4972 25.7173C45.8286 25.4555 46.0772 25.1042 46.2429 24.6634C46.4119 24.2192 46.4964 23.7254 46.4964 23.1818C46.4964 22.6449 46.4136 22.161 46.2479 21.7301C46.0855 21.2959 45.8385 20.9529 45.5071 20.701C45.179 20.4458 44.7663 20.3182 44.2692 20.3182C43.7919 20.3182 43.3909 20.4392 43.0661 20.6811C42.7412 20.9197 42.496 21.2545 42.3303 21.6854C42.1645 22.1129 42.0817 22.6117 42.0817 23.1818ZM51.7116 27.179C51.2277 27.179 50.7886 27.0878 50.3942 26.9055C49.9998 26.7199 49.6866 26.4531 49.4545 26.1051C49.2225 25.7538 49.1065 25.3295 49.1065 24.8324C49.1065 24.3949 49.1927 24.0402 49.3651 23.7685C49.5374 23.4934 49.7678 23.2779 50.0561 23.1222C50.3445 22.9664 50.6626 22.8504 51.0107 22.7741C51.362 22.6946 51.715 22.6316 52.0696 22.5852C52.5336 22.5256 52.9098 22.4808 53.1982 22.451C53.4898 22.4179 53.7019 22.3632 53.8345 22.2869C53.9704 22.2107 54.0384 22.0781 54.0384 21.8892V21.8494C54.0384 21.3589 53.9041 20.9777 53.6357 20.706C53.3705 20.4342 52.9678 20.2983 52.4276 20.2983C51.8674 20.2983 51.4283 20.4209 51.1101 20.6662C50.7919 20.9115 50.5682 21.1733 50.4389 21.4517L49.3253 21.054C49.5241 20.59 49.7893 20.2287 50.1207 19.9702C50.4555 19.7083 50.8201 19.526 51.2145 19.4233C51.6122 19.3172 52.0033 19.2642 52.3878 19.2642C52.633 19.2642 52.9148 19.294 53.233 19.3537C53.5545 19.41 53.8643 19.5277 54.1626 19.7067C54.4643 19.8857 54.7145 20.1558 54.9134 20.517C55.1122 20.8783 55.2116 21.3622 55.2116 21.9688V27H54.0384V25.9659H53.9787C53.8991 26.1316 53.7666 26.3089 53.581 26.4979C53.3954 26.6868 53.1484 26.8475 52.8402 26.9801C52.532 27.1127 52.1558 27.179 51.7116 27.179ZM51.8906 26.125C52.3546 26.125 52.7457 26.0339 53.0639 25.8516C53.3854 25.6693 53.6274 25.4339 53.7898 25.1456C53.9555 24.8572 54.0384 24.554 54.0384 24.2358V23.1619C53.9886 23.2216 53.8793 23.2763 53.7102 23.326C53.5445 23.3724 53.3523 23.4138 53.1335 23.4503C52.9181 23.4834 52.7076 23.5133 52.5021 23.5398C52.3 23.563 52.1359 23.5829 52.0099 23.5994C51.705 23.6392 51.42 23.7038 51.1548 23.7933C50.893 23.8795 50.6809 24.0104 50.5185 24.1861C50.3594 24.3584 50.2798 24.5937 50.2798 24.892C50.2798 25.2997 50.4306 25.608 50.7322 25.8168C51.0372 26.0223 51.4233 26.125 51.8906 26.125ZM60.4554 27.1591C59.7395 27.1591 59.123 26.9901 58.606 26.652C58.089 26.3139 57.6912 25.8482 57.4128 25.255C57.1344 24.6617 56.9952 23.9839 56.9952 23.2216C56.9952 22.446 57.1377 21.7616 57.4228 21.1683C57.7111 20.5717 58.1122 20.1061 58.6259 19.7713C59.1429 19.4332 59.7462 19.2642 60.4355 19.2642C60.9725 19.2642 61.4564 19.3636 61.8873 19.5625C62.3181 19.7614 62.6711 20.0398 62.9462 20.3977C63.2213 20.7557 63.392 21.1733 63.4583 21.6506H62.285C62.1955 21.3026 61.9966 20.9943 61.6884 20.7259C61.3835 20.4541 60.9725 20.3182 60.4554 20.3182C59.998 20.3182 59.597 20.4375 59.2523 20.6761C58.9109 20.9115 58.6441 21.2446 58.4519 21.6754C58.263 22.103 58.1685 22.6051 58.1685 23.1818C58.1685 23.7718 58.2613 24.2855 58.4469 24.723C58.6358 25.1605 58.901 25.5002 59.2424 25.7422C59.5871 25.9841 59.9914 26.1051 60.4554 26.1051C60.7604 26.1051 61.0371 26.0521 61.2857 25.946C61.5343 25.84 61.7447 25.6875 61.9171 25.4886C62.0894 25.2898 62.2121 25.0511 62.285 24.7727H63.4583C63.392 25.2235 63.2279 25.6295 62.9661 25.9908C62.7076 26.3487 62.3645 26.6338 61.937 26.8459C61.5127 27.0547 61.0189 27.1591 60.4554 27.1591ZM66.2672 24.2159L66.2473 22.7642H66.486L69.8269 19.3636H71.2786L67.7189 22.9631H67.6195L66.2672 24.2159ZM65.1735 27V16.8182H66.3468V27H65.1735ZM70.0257 27L67.0428 23.2216L67.878 22.4062L71.5172 27H70.0257Z" fill="white"/>
</svg>
