<svg width="200" height="226" viewBox="0 0 200 226" fill="none" xmlns="http://www.w3.org/2000/svg">
<circle cx="100" cy="100" r="100" fill="white" fill-opacity="0.1"/>
<circle cx="100" cy="100" r="99.5" stroke="white" stroke-opacity="0.2"/>
<path d="M134.5 95.6699C137.833 97.5944 137.833 102.406 134.5 104.33L85 132.909C81.6667 134.833 77.5 132.428 77.5 128.579L77.5 71.4211C77.5 67.5721 81.6667 65.1665 85 67.091L134.5 95.6699Z" fill="white" fill-opacity="0.2"/>
<path d="M134.25 96.1025C137.156 97.7805 137.247 101.897 134.522 103.728L134.25 103.897L84.75 132.476C81.7501 134.208 78.0002 132.043 78 128.579L78 71.4209C78.0002 68.0652 81.5194 65.9286 84.4668 67.373L84.75 67.5244L134.25 96.1025Z" stroke="white" stroke-opacity="0.2"/>
<path d="M44.642 223L42.2557 214.273H43.3295L45.1534 221.381H45.2386L47.0966 214.273H48.2898L50.1477 221.381H50.233L52.0568 214.273H53.1307L50.7443 223H49.6534L47.7273 216.045H47.6591L45.733 223H44.642ZM54.3657 223H53.2578L56.4623 214.273H57.5532L60.7578 223H59.6498L57.0418 215.653H56.9737L54.3657 223ZM54.7748 219.591H59.2407V220.528H54.7748V219.591ZM60.8603 215.21V214.273H67.4058V215.21H64.6615V223H63.6046V215.21H60.8603ZM75.9363 217H74.8794C74.8169 216.696 74.7076 216.429 74.5513 216.199C74.3979 215.969 74.2104 215.776 73.9888 215.619C73.7701 215.46 73.5272 215.341 73.2601 215.261C72.9931 215.182 72.7147 215.142 72.4249 215.142C71.8965 215.142 71.4178 215.276 70.9888 215.543C70.5627 215.81 70.2232 216.203 69.9704 216.723C69.7204 217.243 69.5954 217.881 69.5954 218.636C69.5954 219.392 69.7204 220.03 69.9704 220.55C70.2232 221.07 70.5627 221.463 70.9888 221.73C71.4178 221.997 71.8965 222.131 72.4249 222.131C72.7147 222.131 72.9931 222.091 73.2601 222.011C73.5272 221.932 73.7701 221.814 73.9888 221.658C74.2104 221.499 74.3979 221.304 74.5513 221.074C74.7076 220.841 74.8169 220.574 74.8794 220.273H75.9363C75.8567 220.719 75.7118 221.118 75.5016 221.47C75.2914 221.822 75.03 222.122 74.7175 222.369C74.405 222.614 74.0542 222.8 73.665 222.928C73.2786 223.055 72.8652 223.119 72.4249 223.119C71.6806 223.119 71.0187 222.938 70.4391 222.574C69.8596 222.21 69.4036 221.693 69.0712 221.023C68.7388 220.352 68.5726 219.557 68.5726 218.636C68.5726 217.716 68.7388 216.92 69.0712 216.25C69.4036 215.58 69.8596 215.062 70.4391 214.699C71.0187 214.335 71.6806 214.153 72.4249 214.153C72.8652 214.153 73.2786 214.217 73.665 214.345C74.0542 214.473 74.405 214.661 74.7175 214.908C75.03 215.152 75.2914 215.45 75.5016 215.803C75.7118 216.152 75.8567 216.551 75.9363 217ZM77.884 223V214.273H78.9408V218.159H83.5942V214.273H84.6511V223H83.5942V219.097H78.9408V223H77.884ZM90.1445 215.21V214.273H96.69V215.21H93.9457V223H92.8889V215.21H90.1445ZM98.561 223V214.273H99.6179V218.159H104.271V214.273H105.328V223H104.271V219.097H99.6179V223H98.561ZM107.684 223V214.273H112.951V215.21H108.741V218.159H112.678V219.097H108.741V222.062H113.019V223H107.684ZM119.069 214.273L121.66 221.619H121.762L124.353 214.273H125.461L122.256 223H121.165L117.961 214.273H119.069ZM128.117 214.273V223H127.06V214.273H128.117ZM133.169 223H130.476V214.273H133.288C134.135 214.273 134.859 214.447 135.462 214.797C136.064 215.143 136.526 215.642 136.847 216.293C137.168 216.94 137.328 217.716 137.328 218.619C137.328 219.528 137.166 220.311 136.842 220.967C136.518 221.621 136.047 222.124 135.428 222.476C134.808 222.825 134.055 223 133.169 223ZM131.533 222.062H133.101C133.822 222.062 134.42 221.923 134.895 221.645C135.369 221.366 135.723 220.97 135.956 220.456C136.189 219.942 136.305 219.33 136.305 218.619C136.305 217.915 136.19 217.308 135.96 216.8C135.73 216.288 135.386 215.896 134.929 215.624C134.472 215.348 133.902 215.21 133.22 215.21H131.533V222.062ZM139.341 223V214.273H144.608V215.21H140.398V218.159H144.335V219.097H140.398V222.062H144.676V223H139.341ZM154.116 218.636C154.116 219.557 153.95 220.352 153.618 221.023C153.285 221.693 152.829 222.21 152.25 222.574C151.67 222.938 151.008 223.119 150.264 223.119C149.52 223.119 148.858 222.938 148.278 222.574C147.699 222.21 147.243 221.693 146.91 221.023C146.578 220.352 146.412 219.557 146.412 218.636C146.412 217.716 146.578 216.92 146.91 216.25C147.243 215.58 147.699 215.062 148.278 214.699C148.858 214.335 149.52 214.153 150.264 214.153C151.008 214.153 151.67 214.335 152.25 214.699C152.829 215.062 153.285 215.58 153.618 216.25C153.95 216.92 154.116 217.716 154.116 218.636ZM153.094 218.636C153.094 217.881 152.967 217.243 152.714 216.723C152.464 216.203 152.125 215.81 151.696 215.543C151.27 215.276 150.793 215.142 150.264 215.142C149.736 215.142 149.257 215.276 148.828 215.543C148.402 215.81 148.062 216.203 147.81 216.723C147.56 217.243 147.435 217.881 147.435 218.636C147.435 219.392 147.56 220.03 147.81 220.55C148.062 221.07 148.402 221.463 148.828 221.73C149.257 221.997 149.736 222.131 150.264 222.131C150.793 222.131 151.27 221.997 151.696 221.73C152.125 221.463 152.464 221.07 152.714 220.55C152.967 220.03 153.094 219.392 153.094 218.636Z" fill="#FFEFEF"/>
</svg>
